<svg xmlns="http://www.w3.org/2000/svg" viewBox="0 0 260 300" fill="none">
  <!-- emblem -->
  <circle cx="130" cy="110" r="86" fill="#206B4A"/>
  <!-- water droplet -->
  <path d="M150 58 c11 16 18 26 18 36 a18 18 0 1 1 -36 0 c0 -10 7 -20 18 -36 z" fill="none" stroke="#ffffff" stroke-width="5" stroke-linejoin="round"/>
  <circle cx="143" cy="92" r="5" fill="#ffffff"/>
  <!-- large leaf sweeping lower-left -->
  <path d="M70 150 C92 118 128 104 176 104 C168 150 140 176 96 182 C86 172 76 162 70 150 Z" fill="none" stroke="#ffffff" stroke-width="5" stroke-linejoin="round"/>
  <!-- leaf central vein -->
  <path d="M96 178 C112 150 138 128 172 110" fill="none" stroke="#ffffff" stroke-width="5" stroke-linecap="round"/>
  <!-- upper leaf arc -->
  <path d="M120 66 C104 84 96 108 100 134" fill="none" stroke="#ffffff" stroke-width="5" stroke-linecap="round"/>
  <!-- right leaf edge -->
  <path d="M176 104 C186 128 182 150 168 168" fill="none" stroke="#ffffff" stroke-width="5" stroke-linecap="round"/>
  <!-- wordmark -->
  <text x="130" y="248" text-anchor="middle" font-family="Arial, Helvetica, sans-serif" font-weight="800" font-size="34" letter-spacing="1.5" fill="#1C5E43">CLIMATE CORE</text>
  <text x="130" y="286" text-anchor="middle" font-family="Arial, Helvetica, sans-serif" font-weight="500" font-size="30" letter-spacing="9" fill="#3E8E6B">PAKISTAN</text>
</svg>
